<svg width="24" height="24" viewBox="0 0 24 24" fill="none" xmlns="http://www.w3.org/2000/svg">
<path d="M19.0711 14.9289C17.9819 13.8398 16.6855 13.0335 15.2711 12.5454C16.786 11.502 17.7812 9.75578 17.7812 7.78125C17.7812 4.59348 15.1878 2 12 2C8.81223 2 6.21875 4.59348 6.21875 7.78125C6.21875 9.75578 7.21402 11.502 8.72898 12.5454C7.31453 13.0335 6.01813 13.8398 4.92895 14.9289C3.22536 16.6325 2.21211 18.8425 2.02981 21.2194C1.99682 21.6497 2.34978 22 2.78125 22C3.21272 22 3.5587 21.6491 3.5983 21.2194C3.99343 16.9315 7.61068 13.5625 12 13.5625C16.3893 13.5625 20.0066 16.9315 20.4017 21.2194C20.4413 21.6491 20.7873 22 21.2188 22C21.6502 22 22.0032 21.6497 21.9702 21.2194C21.7879 18.8425 20.7746 16.6325 19.0711 14.9289ZM12 12C9.67379 12 7.78125 10.1075 7.78125 7.78125C7.78125 5.455 9.67379 3.5625 12 3.5625C14.3262 3.5625 16.2188 5.455 16.2188 7.78125C16.2188 10.1075 14.3262 12 12 12Z" fill="black" stroke="black" stroke-linecap="round" stroke-linejoin="round"/>
</svg>
